<?xml version="1.0" encoding="utf-8"?>
<!-- Generator: Adobe Illustrator 25.2.0, SVG Export Plug-In . SVG Version: 6.00 Build 0)  -->
<svg version="1.1" id="Layer_1" xmlns="http://www.w3.org/2000/svg" xmlns:xlink="http://www.w3.org/1999/xlink" x="0px" y="0px"
	 viewBox="0 0 190 40" style="enable-background:new 0 0 190 40;" xml:space="preserve">
<style type="text/css">
	.st0{fill:#FFFFFF;}
	.st1{fill:#AC6AFF;}
</style>
<path class="st0" d="M56-39.5v-20.4h8.5c1.5,0,2.8,0.2,3.8,0.6c1,0.4,1.8,1,2.3,1.8c0.5,0.8,0.8,1.7,0.8,2.7c0,0.8-0.2,1.5-0.5,2.1
	c-0.3,0.6-0.8,1.1-1.3,1.5c-0.6,0.4-1.2,0.7-2,0.8v0.2c0.8,0,1.6,0.3,2.3,0.7c0.7,0.4,1.3,1,1.7,1.7c0.4,0.7,0.6,1.6,0.6,2.5
	c0,1.1-0.3,2.1-0.8,2.9c-0.6,0.9-1.4,1.5-2.4,2c-1.1,0.5-2.3,0.7-3.8,0.7H56z M60.9-43.5h3c1.1,0,1.9-0.2,2.4-0.6
	c0.5-0.4,0.8-1,0.8-1.7c0-0.5-0.1-1-0.4-1.4c-0.2-0.4-0.6-0.7-1-0.9c-0.5-0.2-1-0.3-1.6-0.3h-3.1V-43.5z M60.9-51.5h2.7
	c0.5,0,1-0.1,1.4-0.3c0.4-0.2,0.7-0.4,1-0.8c0.2-0.3,0.4-0.7,0.4-1.2c0-0.7-0.2-1.2-0.7-1.6c-0.5-0.4-1.1-0.6-2-0.6h-2.8V-51.5z
	 M73.5-39.5v-15.3h4.7v2.8h0.2c0.3-1,0.7-1.8,1.4-2.2c0.6-0.5,1.4-0.7,2.2-0.7c0.2,0,0.5,0,0.7,0c0.2,0,0.5,0.1,0.7,0.1v4.2
	c-0.2-0.1-0.5-0.1-0.9-0.2c-0.4,0-0.7-0.1-1-0.1c-0.6,0-1.1,0.1-1.6,0.4c-0.5,0.3-0.8,0.6-1.1,1.1c-0.3,0.5-0.4,1-0.4,1.6v8.3H73.5z
	 M87.9-39.2c-1,0-1.8-0.2-2.6-0.5c-0.7-0.3-1.3-0.8-1.8-1.5c-0.4-0.7-0.6-1.5-0.6-2.5c0-0.8,0.1-1.6,0.4-2.1
	c0.3-0.6,0.7-1.1,1.2-1.4c0.5-0.4,1.1-0.6,1.8-0.8c0.7-0.2,1.4-0.3,2.2-0.4c0.9-0.1,1.6-0.2,2.1-0.2c0.5-0.1,0.9-0.2,1.2-0.4
	c0.2-0.2,0.4-0.4,0.4-0.7v0c0-0.5-0.2-0.9-0.5-1.2c-0.4-0.3-0.8-0.4-1.4-0.4c-0.6,0-1.2,0.1-1.6,0.4S88-50.5,87.9-50l-4.5-0.2
	c0.1-0.9,0.5-1.8,1-2.5c0.6-0.7,1.3-1.3,2.3-1.7c1-0.4,2.1-0.6,3.5-0.6c1,0,1.9,0.1,2.7,0.3c0.8,0.2,1.5,0.6,2.1,1
	c0.6,0.4,1.1,1,1.4,1.6c0.3,0.6,0.5,1.3,0.5,2.2v10.4h-4.6v-2.1h-0.1c-0.3,0.5-0.6,1-1,1.3c-0.4,0.4-0.9,0.6-1.5,0.8
	C89.2-39.3,88.6-39.2,87.9-39.2z M89.4-42.4c0.5,0,1-0.1,1.4-0.3c0.4-0.2,0.8-0.5,1-0.9c0.3-0.4,0.4-0.8,0.4-1.3v-1.5
	c-0.1,0.1-0.3,0.1-0.5,0.2c-0.2,0.1-0.4,0.1-0.6,0.2c-0.2,0.1-0.5,0.1-0.7,0.1c-0.2,0-0.5,0.1-0.7,0.1c-0.5,0.1-0.8,0.2-1.2,0.3
	c-0.3,0.2-0.6,0.4-0.7,0.6c-0.2,0.2-0.2,0.5-0.2,0.9c0,0.5,0.2,0.9,0.5,1.2C88.4-42.6,88.8-42.4,89.4-42.4z M98.9-39.5v-15.3h4.9
	v15.3H98.9z M101.3-56.6c-0.7,0-1.3-0.2-1.8-0.7c-0.5-0.5-0.7-1-0.7-1.7c0-0.6,0.2-1.2,0.7-1.6c0.5-0.5,1.1-0.7,1.8-0.7
	c0.7,0,1.3,0.2,1.8,0.7c0.5,0.5,0.7,1,0.7,1.6c0,0.6-0.2,1.2-0.7,1.7C102.6-56.8,102-56.6,101.3-56.6z M110.6-48.2v8.7h-4.9v-15.3
	h4.6v2.8h0.2c0.3-0.9,0.9-1.7,1.7-2.2c0.8-0.5,1.8-0.8,2.9-0.8c1.1,0,2,0.2,2.8,0.7c0.8,0.5,1.4,1.1,1.8,2c0.4,0.9,0.7,1.9,0.7,3
	v9.7h-4.9v-8.8c0-0.8-0.2-1.5-0.6-2c-0.4-0.5-1-0.7-1.8-0.7c-0.5,0-1,0.1-1.4,0.3c-0.4,0.2-0.7,0.5-0.9,0.9
	C110.7-49.3,110.6-48.8,110.6-48.2z"/>
<polygon class="st0" points="125.2,-39.5 121.2,-54.8 126.1,-54.8 128.1,-45 128.3,-45 130.5,-54.8 135.2,-54.8 137.5,-45.1 
	137.6,-45.1 139.6,-54.8 144.5,-54.8 140.5,-39.5 135.3,-39.5 132.9,-48.4 132.8,-48.4 130.4,-39.5 "/>
<path class="st0" d="M149.6-39.2c-1,0-1.8-0.2-2.6-0.5c-0.7-0.3-1.3-0.8-1.8-1.5c-0.4-0.7-0.6-1.5-0.6-2.5c0-0.8,0.1-1.6,0.4-2.1
	c0.3-0.6,0.7-1.1,1.2-1.4c0.5-0.4,1.1-0.6,1.8-0.8c0.7-0.2,1.4-0.3,2.2-0.4c0.9-0.1,1.6-0.2,2.1-0.2c0.5-0.1,0.9-0.2,1.2-0.4
	c0.2-0.2,0.4-0.4,0.4-0.7v0c0-0.5-0.2-0.9-0.5-1.2c-0.4-0.3-0.8-0.4-1.4-0.4c-0.6,0-1.2,0.1-1.6,0.4c-0.4,0.3-0.6,0.7-0.7,1.2
	l-4.5-0.2c0.1-0.9,0.5-1.8,1-2.5c0.6-0.7,1.3-1.3,2.3-1.7c1-0.4,2.1-0.6,3.5-0.6c1,0,1.9,0.1,2.7,0.3c0.8,0.2,1.5,0.6,2.1,1
	c0.6,0.4,1.1,1,1.4,1.6c0.3,0.6,0.5,1.3,0.5,2.2v10.4h-4.6v-2.1h-0.1c-0.3,0.5-0.6,1-1,1.3c-0.4,0.4-0.9,0.6-1.5,0.8
	C151-39.3,150.4-39.2,149.6-39.2z M151.1-42.4c0.5,0,1-0.1,1.4-0.3c0.4-0.2,0.8-0.5,1-0.9c0.3-0.4,0.4-0.8,0.4-1.3v-1.5
	c-0.1,0.1-0.3,0.1-0.5,0.2c-0.2,0.1-0.4,0.1-0.6,0.2c-0.2,0.1-0.5,0.1-0.7,0.1c-0.2,0-0.5,0.1-0.7,0.1c-0.5,0.1-0.8,0.2-1.2,0.3
	c-0.3,0.2-0.6,0.4-0.7,0.6c-0.2,0.2-0.2,0.5-0.2,0.9c0,0.5,0.2,0.9,0.5,1.2C150.1-42.6,150.6-42.4,151.1-42.4z"/>
<polygon class="st0" points="174.9,-54.8 169.7,-39.5 164.1,-39.5 158.9,-54.8 164,-54.8 166.8,-44.3 166.9,-44.3 169.8,-54.8 "/>
<path class="st0" d="M182.3-39.2c-1.6,0-3-0.3-4.1-0.9c-1.2-0.6-2-1.5-2.7-2.7c-0.6-1.2-0.9-2.6-0.9-4.2c0-1.6,0.3-3,0.9-4.1
	c0.6-1.2,1.5-2.1,2.6-2.8c1.1-0.7,2.5-1,4-1c1.1,0,2.1,0.2,3,0.5c0.9,0.3,1.7,0.8,2.3,1.5c0.7,0.7,1.2,1.5,1.5,2.5
	c0.4,1,0.5,2.1,0.5,3.3v1.2h-13.3v-2.8h8.8c0-0.5-0.1-1-0.4-1.4c-0.2-0.4-0.6-0.7-1-0.9c-0.4-0.2-0.9-0.3-1.4-0.3
	c-0.5,0-1,0.1-1.5,0.4c-0.4,0.2-0.8,0.6-1,1c-0.3,0.4-0.4,0.9-0.4,1.4v2.9c0,0.6,0.1,1.2,0.4,1.6c0.2,0.5,0.6,0.8,1,1.1
	c0.5,0.3,1,0.4,1.6,0.4c0.4,0,0.8-0.1,1.2-0.2c0.4-0.1,0.7-0.3,0.9-0.5c0.3-0.2,0.4-0.5,0.6-0.9l4.5,0.1c-0.2,1-0.6,1.9-1.2,2.6
	c-0.6,0.7-1.4,1.3-2.5,1.7C184.8-39.4,183.6-39.2,182.3-39.2z"/>
<g>
	<polygon class="st1" points="35.8,11.5 35.8,6.3 26.2,0 26.2,4 32.5,8.2 32.5,11.4 29.6,13.4 27.6,11.9 27.6,9.4 24.3,7.2 
		24.3,11.7 19.1,14.9 19.1,23.3 15.4,25.4 13.5,23.9 13.5,21.5 15.8,20 15.8,19.9 15.8,16.2 11.7,18.9 8.7,16.9 5.9,18.7 10.3,21.7 
		10.3,23.5 7.1,25.7 3.9,23.5 3.9,16.2 8.7,13 8.7,9.9 14.8,13.8 20,10.4 16.8,8.6 14.8,9.9 10.3,7 15.3,4 19.7,6.6 19.7,2.8 
		15.3,0.2 5.4,6 5.4,11.2 0.6,14.5 0.6,25.3 5.4,28.5 5.4,33.7 15,40 15,36 8.7,31.8 8.7,28.6 11.6,26.6 13.6,28.1 13.6,30.6 
		16.9,32.8 16.9,28.3 22.2,25.1 22.2,16.7 25.8,14.6 27.7,16.1 27.7,18.5 25.4,20 25.4,20.1 25.4,23.8 29.4,21.1 32.5,23.1 
		35.3,21.3 30.9,18.3 30.9,16.5 34.1,14.3 37.3,16.5 37.3,23.8 32.5,27 32.5,30.1 26.4,26.2 21.2,29.6 24.4,31.4 26.4,30.1 30.9,33 
		25.9,36 21.5,33.4 21.5,37.2 25.9,39.8 35.8,34 35.8,28.8 40.6,25.5 40.6,14.7 	"/>
	<g>
		<path class="st0" d="M77.6,10.8V30h-5.5V16.3L68.6,30h-3.7l-3.7-13.7V30h-4.4V10.8h7.7L67.3,21l2.7-10.2H77.6z"/>
		<path class="st0" d="M86.4,10.2v4.4h-5.6v-4.4H86.4z M86.4,15.7V30h-5.6V15.7H86.4z"/>
		<path class="st0" d="M103.3,30h-5.6v-9c0-0.7-0.1-1.2-0.3-1.4c-0.2-0.2-0.5-0.3-0.9-0.3c-1,0-1.5,0.7-1.5,2.1V30h-5.6V15.7h5.2v2
			c0.8-1.5,2.1-2.3,4.1-2.3c1,0,1.9,0.2,2.6,0.6c0.7,0.4,1.2,0.9,1.5,1.5c0.3,0.6,0.5,1.7,0.5,3.3V30z"/>
		<path class="st0" d="M120.2,30h-5.3v-1.9c-0.8,1.5-2.1,2.2-3.8,2.2c-1.6,0-3-0.6-4-1.9c-1-1.3-1.5-3.2-1.5-5.6
			c0-2.3,0.5-4.1,1.5-5.5s2.4-2,4.1-2c1.4,0,2.6,0.5,3.5,1.6v-6.1h5.5V30z M114.7,20.8c0-1.3-0.5-1.9-1.6-1.9
			c-0.7,0-1.2,0.4-1.5,1.2s-0.3,1.8-0.3,3c0,2.3,0.6,3.5,1.8,3.5c0.4,0,0.8-0.2,1.1-0.5c0.3-0.4,0.5-0.9,0.5-1.7V20.8z"/>
		<path class="st0" d="M142.8,15.7L138.3,30h-4l-1.9-7.7l-2,7.7h-4l-4.6-14.3h5.5l1.9,7l1.8-7h4.1l1.8,7l2-7H142.8z"/>
		<path class="st0" d="M158.5,30h-5.3c-0.1-0.6-0.2-1.3-0.2-2c-1,1.5-2.5,2.3-4.6,2.3c-1.7,0-2.9-0.4-3.8-1.3s-1.3-1.8-1.3-3
			c0-1.5,0.7-2.7,2.1-3.7s3.8-1.5,7.3-1.7v-0.3c0-0.6-0.1-1-0.4-1.2c-0.3-0.2-0.7-0.3-1.3-0.3c-1.3,0-2,0.5-2.2,1.6l-5.1-0.5
			c0.7-3,3.2-4.5,7.5-4.5c1.2,0,2.2,0.1,3.2,0.3c1,0.2,1.7,0.6,2.3,1.1c0.6,0.5,0.9,1,1.1,1.5c0.2,0.5,0.3,1.6,0.3,3.1v5.7
			C158,28.3,158.2,29.2,158.5,30z M152.6,23.3c-2.4,0.3-3.6,1-3.6,2.3c0,0.9,0.5,1.3,1.4,1.3c0.6,0,1.1-0.2,1.5-0.5
			c0.4-0.4,0.6-1.1,0.6-2.4V23.3z"/>
		<path class="st0" d="M173.8,15.7L168.6,30h-4.2L159,15.7h5.8l2,6.1c0.2,0.5,0.3,1,0.5,1.5c0-0.2,0.1-0.4,0.2-0.6
			c0,0,0.1-0.2,0.2-0.5l2.1-6.4H173.8z"/>
		<path class="st0" d="M184.2,24.8l5.2,0.4c-0.3,1.4-1.1,2.6-2.4,3.6c-1.3,1-3,1.5-5.1,1.5c-2.4,0-4.3-0.7-5.8-2.1S174,25.1,174,23
			c0-2.1,0.7-3.9,2.1-5.4c1.4-1.5,3.3-2.2,5.7-2.2c2.3,0,4.1,0.7,5.5,2.1s2.1,3.3,2.1,5.7c0,0.2,0,0.5,0,0.8h-9.6
			c0,0.9,0.2,1.6,0.5,2c0.3,0.4,0.9,0.7,1.7,0.7C183.2,26.6,184,26,184.2,24.8z M183.8,21.1c0-1-0.2-1.6-0.6-1.9
			c-0.4-0.3-0.8-0.5-1.4-0.5c-1.3,0-2,0.8-2,2.4H183.8z"/>
	</g>
</g>
<text transform="matrix(1 0 0 1 54.5308 149.806)" style="font-family:'FranklinGothic-Heavy'; font-size:28.7646px;">Mindwave</text>
</svg>
